<svg width="313" height="151" viewBox="0 0 313 151" fill="none" xmlns="http://www.w3.org/2000/svg">
<path d="M289.189 10.6131C295.011 11.8131 300.1 15.1019 303.233 19.702C307.678 26.2575 306.744 34.3908 300.989 39.0575C296.278 42.8575 290.433 43.9242 282.744 42.3908C280.9 42.013 279.144 41.7687 278.856 41.8353C278.544 41.9242 277.5 42.302 276.522 42.702C273.456 43.9687 273.744 44.102 273.744 41.4353C273.722 38.2575 273.567 37.6797 272.144 36.1908C268.989 32.8353 267.411 29.4575 267.144 25.4575C266.878 21.502 268.211 18.0797 271.167 15.1464C273.322 13.0353 275.478 11.7464 278.3 10.9242C281.744 9.92415 285.3 9.83527 289.189 10.6131Z" fill="#88B5FE"/>
<path d="M283.5 3.72436C280.233 4.19103 276.478 5.79103 273.856 7.79103C272.1 9.1466 268.833 12.8577 267.678 14.8355C265.167 19.08 264.5 21.1688 264.5 24.8355C264.5 29.5243 266.233 33.7243 269.722 37.4577L271.056 38.88L270.989 41.8577C270.878 46.1022 271.233 46.8355 273.1 46.48C273.522 46.4133 275.233 45.8355 276.9 45.2355L279.922 44.1243L282.167 44.7022C284.944 45.4355 289.567 45.68 292.478 45.2577C296.033 44.7243 299.545 43.28 302.256 41.191C303.811 39.991 306.278 37.0355 308.344 33.8577C310.256 30.9688 310.855 29.6355 311.3 27.3243C312.433 21.3688 310.278 15.4355 305.256 10.5688C300.411 5.90215 294.011 3.41326 287.1 3.50215C285.856 3.52436 284.233 3.61326 283.5 3.72436ZM289.056 10.6133C294.878 11.8133 299.967 15.1021 303.1 19.7022C307.545 26.2577 306.611 34.391 300.855 39.0577C296.145 42.8577 290.3 43.9243 282.611 42.391C280.767 42.0133 279.011 41.7688 278.722 41.8355C278.411 41.9243 277.367 42.3022 276.389 42.7022C273.322 43.9688 273.611 44.1022 273.611 41.4355C273.589 38.2577 273.433 37.68 272.011 36.191C268.856 32.8355 267.278 29.4577 267.011 25.4577C266.744 21.5022 268.078 18.08 271.033 15.1466C273.189 13.0355 275.344 11.7466 278.167 10.9244C281.611 9.92437 285.167 9.83548 289.056 10.6133Z" fill="black"/>
<path d="M274.745 20.6355C273.078 21.4578 272.433 23.7688 273.456 25.2578C274.633 27.0133 277.145 27.3245 278.611 25.9245C279.989 24.5912 280.122 23.0133 279.011 21.5022C277.967 20.1467 276.389 19.8133 274.745 20.6355Z" fill="black"/>
<path d="M283.678 24.1467C282.189 25.0355 281.633 27.3022 282.522 28.7467C283.033 29.5688 284.522 30.3688 285.522 30.3688C286.9 30.3688 288.478 29.08 288.833 27.68C289.078 26.68 288.567 25.3688 287.611 24.5022C286.833 23.791 286.589 23.7022 285.544 23.7022C284.789 23.7022 284.144 23.8577 283.678 24.1467Z" fill="black"/>
<path d="M292.722 27.7467C291.5 28.591 291.078 29.3243 291.078 30.68C291.056 31.7243 291.144 31.991 291.7 32.5688C293.1 34.0355 295.144 34.2577 296.5 33.1022C297.9 31.9243 298.189 30.4577 297.322 28.9243C296.411 27.3022 294.211 26.7467 292.722 27.7467Z" fill="black"/>
<path d="M4.928 108.544L5.056 97.216V84.416C5.056 78.528 4.77867 73.6213 4.224 69.696C7.38133 69.184 10.56 68.928 13.76 68.928C25.1947 68.928 30.912 73.1733 30.912 81.664C30.912 85.1627 29.952 88 28.032 90.176C26.112 92.3093 23.5733 93.6747 20.416 94.272C20.416 94.3147 20.7787 95.104 21.504 96.64C22.2293 98.176 22.72 99.2 22.976 99.712C23.2747 100.224 23.7227 101.056 24.32 102.208C25.4293 104.341 26.3893 105.813 27.2 106.624C28.3093 107.861 29.6747 108.48 31.296 108.48C31.808 108.48 32.384 108.416 33.024 108.288C33.408 109.056 33.6 109.696 33.6 110.208C33.6 111.829 32 112.64 28.8 112.64C27.0507 112.64 25.4293 111.787 23.936 110.08C23.1253 109.141 22.4213 108.309 21.824 107.584C21.2693 106.859 20.5653 105.728 19.712 104.192C18.9013 102.656 18.3253 101.568 17.984 100.928C17.6427 100.245 17.0667 99.0293 16.256 97.28C15.4453 95.488 14.976 94.464 14.848 94.208C13.6533 94.0373 13.056 93.568 13.056 92.8C13.056 92.416 13.1627 91.84 13.376 91.072C14.5707 91.2853 15.5733 91.392 16.384 91.392C19.2427 91.392 21.4827 90.56 23.104 88.896C24.7253 87.1893 25.536 84.7573 25.536 81.6C25.536 78.4427 24.64 76.2027 22.848 74.88C21.056 73.5147 18.304 72.832 14.592 72.832C13.2267 72.832 11.5627 72.9173 9.6 73.088C9.77067 75.5627 9.856 79.9147 9.856 86.144V99.008C9.856 104.768 10.2613 108.992 11.072 111.68C10.304 112.021 9.30133 112.192 8.064 112.192C6.82667 112.192 5.99467 111.915 5.568 111.36C5.14133 110.805 4.928 109.867 4.928 108.544ZM64.6575 97.152C64.6575 101.845 63.3775 105.6 60.8175 108.416C58.2575 111.232 54.8868 112.64 50.7055 112.64C46.5668 112.64 43.2175 111.232 40.6575 108.416C38.0975 105.6 36.8175 101.845 36.8175 97.152C36.8175 92.4587 38.0975 88.704 40.6575 85.888C43.2175 83.0293 46.5668 81.6 50.7055 81.6C54.8868 81.6 58.2575 83.0293 60.8175 85.888C63.3775 88.704 64.6575 92.4587 64.6575 97.152ZM50.7055 109.056C53.6922 109.056 56.0175 108.053 57.6815 106.048C59.3455 104.043 60.1775 101.291 60.1775 97.792C60.1775 94.2933 59.3242 91.328 57.6175 88.896C55.9108 86.4213 53.5855 85.184 50.6415 85.184C47.6975 85.184 45.3935 86.208 43.7295 88.256C42.1082 90.2613 41.2975 93.0133 41.2975 96.512C41.2975 100.011 42.1295 102.976 43.7935 105.408C45.4575 107.84 47.7615 109.056 50.7055 109.056ZM98.2825 97.152C98.2825 101.845 97.0025 105.6 94.4425 108.416C91.8825 111.232 88.5118 112.64 84.3305 112.64C80.1918 112.64 76.8425 111.232 74.2825 108.416C71.7225 105.6 70.4425 101.845 70.4425 97.152C70.4425 92.4587 71.7225 88.704 74.2825 85.888C76.8425 83.0293 80.1918 81.6 84.3305 81.6C88.5118 81.6 91.8825 83.0293 94.4425 85.888C97.0025 88.704 98.2825 92.4587 98.2825 97.152ZM84.3305 109.056C87.3172 109.056 89.6425 108.053 91.3065 106.048C92.9705 104.043 93.8025 101.291 93.8025 97.792C93.8025 94.2933 92.9492 91.328 91.2425 88.896C89.5358 86.4213 87.2105 85.184 84.2665 85.184C81.3225 85.184 79.0185 86.208 77.3545 88.256C75.7332 90.2613 74.9225 93.0133 74.9225 96.512C74.9225 100.011 75.7545 102.976 77.4185 105.408C79.0825 107.84 81.3865 109.056 84.3305 109.056ZM108.001 108.864L108.129 85.824C106.721 85.824 105.057 85.9307 103.137 86.144C103.009 85.7173 102.945 85.1413 102.945 84.416C102.945 83.2213 103.734 82.5387 105.313 82.368C106.252 82.2827 107.19 82.24 108.129 82.24C108.129 75.84 109.068 71.5093 110.945 69.248C112.652 67.2427 115.212 66.24 118.625 66.24C120.161 66.24 121.484 66.4747 122.593 66.944C123.702 67.4133 124.257 68.0533 124.257 68.864C124.257 69.6747 123.83 70.656 122.977 71.808C121.526 70.4853 119.734 69.824 117.601 69.824C115.468 69.824 114.06 70.5707 113.377 72.064C112.694 73.5573 112.353 75.9467 112.353 79.232V82.24C116.492 82.24 119.393 82.1547 121.057 81.984C121.228 82.3253 121.313 82.88 121.313 83.648C121.313 84.3733 121.078 84.8853 120.609 85.184C120.182 85.4827 119.372 85.6533 118.177 85.696C117.025 85.7387 115.084 85.76 112.353 85.76V99.072C112.353 104.747 112.758 108.949 113.569 111.68C112.801 112.021 111.905 112.192 110.881 112.192C109.857 112.192 109.11 111.936 108.641 111.424C108.214 110.912 108.001 110.059 108.001 108.864ZM130.269 85.696C130.141 85.696 128.157 85.8453 124.317 86.144C124.189 85.76 124.125 85.1627 124.125 84.352C124.125 83.4987 124.445 82.944 125.085 82.688C125.725 82.3893 126.813 82.24 128.349 82.24H130.141C130.056 79.3813 129.928 76.992 129.757 75.072C130.397 74.944 131.101 74.88 131.869 74.88C133.917 74.88 134.941 75.6907 134.941 77.312C134.941 77.9093 134.856 79.5733 134.685 82.304C140.104 82.304 143.688 82.1973 145.437 81.984C145.608 82.3253 145.693 82.88 145.693 83.648C145.693 84.3733 145.458 84.8853 144.989 85.184C144.562 85.4827 143.73 85.6533 142.493 85.696C141.298 85.7387 138.653 85.76 134.557 85.76C134.472 90.368 134.429 94.8693 134.429 99.264C134.429 103.616 134.834 106.368 135.645 107.52C136.498 108.672 137.842 109.248 139.677 109.248C141.554 109.248 143.133 108.608 144.413 107.328C145.181 108.139 145.565 108.949 145.565 109.76C145.565 110.571 145.01 111.253 143.901 111.808C142.792 112.363 141.448 112.64 139.869 112.64C136.328 112.64 133.81 111.616 132.317 109.568C130.866 107.52 130.141 104.469 130.141 100.416C130.226 92.6933 130.269 87.7867 130.269 85.696ZM176.658 97.152C176.658 101.845 175.378 105.6 172.818 108.416C170.258 111.232 166.887 112.64 162.706 112.64C158.567 112.64 155.218 111.232 152.658 108.416C150.098 105.6 148.818 101.845 148.818 97.152C148.818 92.4587 150.098 88.704 152.658 85.888C155.218 83.0293 158.567 81.6 162.706 81.6C166.887 81.6 170.258 83.0293 172.818 85.888C175.378 88.704 176.658 92.4587 176.658 97.152ZM162.706 109.056C165.692 109.056 168.018 108.053 169.682 106.048C171.346 104.043 172.178 101.291 172.178 97.792C172.178 94.2933 171.324 91.328 169.618 88.896C167.911 86.4213 165.586 85.184 162.642 85.184C159.698 85.184 157.394 86.208 155.73 88.256C154.108 90.2613 153.298 93.0133 153.298 96.512C153.298 100.011 154.13 102.976 155.794 105.408C157.458 107.84 159.762 109.056 162.706 109.056ZM184.427 124.544L184.619 96.064C184.619 89.3227 184.213 84.8213 183.403 82.56C184.171 82.2187 185.003 82.048 185.899 82.048C187.733 82.048 188.651 83.1147 188.651 85.248C191.893 82.816 195.179 81.6 198.507 81.6C201.877 81.6 204.587 82.752 206.635 85.056C208.725 87.3173 209.771 90.7733 209.771 95.424C209.771 102.08 207.744 106.987 203.691 110.144C201.557 111.808 199.104 112.64 196.331 112.64C193.6 112.64 191.104 111.915 188.843 110.464C188.843 117.717 188.992 122.197 189.291 123.904C189.589 125.653 189.867 126.912 190.123 127.68C189.355 128.021 188.416 128.192 187.307 128.192C186.24 128.192 185.493 127.915 185.067 127.36C184.64 126.805 184.427 125.867 184.427 124.544ZM188.97 107.136C190.933 108.416 193.493 109.056 196.651 109.056C198.571 109.056 200.213 108.416 201.579 107.136C204.011 104.747 205.227 101.163 205.227 96.384C205.227 92.544 204.48 89.728 202.987 87.936C201.536 86.1013 199.509 85.184 196.907 85.184C194.304 85.184 191.616 86.3573 188.843 88.704C188.928 98.0907 188.97 104.235 188.97 107.136Z" fill="black"/>
<path d="M12.85 140.65C13.5833 140.95 13.95 141.383 13.95 141.95C13.95 142.5 13.475 143.025 12.525 143.525C11.575 144.008 10.4 144.25 9 144.25C6.65 144.25 4.76667 143.467 3.35 141.9C1.93333 140.317 1.225 138.225 1.225 135.625C1.225 133.008 1.93333 130.95 3.35 129.45C4.76667 127.933 6.68333 127.175 9.1 127.175C10.4 127.175 11.4917 127.442 12.375 127.975C13.2583 128.492 13.7 129.133 13.7 129.9C13.7 130.583 13.225 131 12.275 131.15C11.9583 130.333 11.4583 129.725 10.775 129.325C10.0917 128.908 9.36667 128.7 8.6 128.7C7.03333 128.7 5.75 129.325 4.75 130.575C3.76667 131.808 3.275 133.425 3.275 135.425C3.275 137.408 3.775 139.125 4.775 140.575C5.775 142.008 7.175 142.725 8.975 142.725C9.775 142.725 10.5167 142.55 11.2 142.2C11.9 141.85 12.45 141.333 12.85 140.65ZM24.8391 136.2L24.7891 139.575C24.7891 141.492 24.9474 142.925 25.2641 143.875C24.9974 144.008 24.6724 144.075 24.2891 144.075C23.9224 144.075 23.6641 143.992 23.5141 143.825C23.3641 143.642 23.2641 143.358 23.2141 142.975C22.1807 143.825 21.1141 144.25 20.0141 144.25C17.4474 144.25 16.1641 143.075 16.1641 140.725C16.1641 139.875 16.3641 139.25 16.7641 138.85C17.1641 138.45 17.7141 138.15 18.4141 137.95C19.6641 137.617 21.2474 137.392 23.1641 137.275C23.1641 135.858 22.9891 134.883 22.6391 134.35C22.2891 133.8 21.5474 133.525 20.4141 133.525C19.9474 133.525 19.4641 133.675 18.9641 133.975C18.4641 134.275 18.0891 134.708 17.8391 135.275C17.0724 135.125 16.6891 134.792 16.6891 134.275C16.6891 133.625 17.0891 133.108 17.8891 132.725C18.6891 132.325 19.7141 132.125 20.9641 132.125C22.2141 132.125 23.1724 132.425 23.8391 133.025C24.5057 133.608 24.8391 134.667 24.8391 136.2ZM23.1391 138.55C22.6557 138.6 22.2891 138.642 22.0391 138.675C21.8057 138.708 21.4807 138.75 21.0641 138.8C20.6641 138.85 20.3641 138.9 20.1641 138.95C19.9641 139 19.7141 139.067 19.4141 139.15C19.1307 139.233 18.9141 139.325 18.7641 139.425C18.6307 139.525 18.4891 139.633 18.3391 139.75C18.0557 139.983 17.9141 140.308 17.9141 140.725C17.9141 141.475 18.1307 142.033 18.5641 142.4C18.9974 142.75 19.5474 142.925 20.2141 142.925C21.3474 142.925 22.3057 142.55 23.0891 141.8C23.0724 141.567 23.0641 141.142 23.0641 140.525C23.0641 139.908 23.0891 139.25 23.1391 138.55ZM37.7107 133.25L37.6107 138.925C37.6107 141.042 37.7691 142.692 38.0857 143.875C37.7524 144.008 37.4441 144.075 37.1607 144.075C36.3941 144.075 36.0107 143.658 36.0107 142.825C34.8107 143.775 33.4857 144.25 32.0357 144.25C29.6691 144.25 28.4857 143.075 28.4857 140.725L28.5607 136.275C28.5607 134.758 28.4191 133.5 28.1357 132.5C28.4691 132.367 28.8191 132.3 29.1857 132.3C29.5691 132.3 29.8524 132.4 30.0357 132.6C30.2357 132.783 30.3357 133.108 30.3357 133.575C30.3357 133.575 30.2857 135.733 30.1857 140.05C30.1857 140.95 30.4024 141.642 30.8357 142.125C31.2857 142.608 31.8607 142.85 32.5607 142.85C33.7607 142.85 34.8857 142.392 35.9357 141.475C35.9191 140.758 35.9107 139.425 35.9107 137.475C35.9107 135.525 35.8524 133.825 35.7357 132.375C36.0024 132.325 36.2857 132.3 36.5857 132.3C37.3357 132.3 37.7107 132.617 37.7107 133.25ZM47.3252 135.15C47.1419 134.667 46.7669 134.275 46.2002 133.975C45.6335 133.675 45.0502 133.525 44.4502 133.525C43.8669 133.525 43.3669 133.683 42.9502 134C42.5335 134.3 42.3252 134.717 42.3252 135.25C42.3252 135.783 42.5419 136.192 42.9752 136.475C43.4252 136.758 43.9669 136.975 44.6002 137.125C45.2335 137.275 45.8669 137.45 46.5002 137.65C47.1335 137.833 47.6669 138.175 48.1002 138.675C48.5502 139.175 48.7752 139.825 48.7752 140.625C48.7752 141.808 48.3502 142.708 47.5002 143.325C46.6502 143.942 45.6752 144.25 44.5752 144.25C43.4919 144.25 42.5502 144.058 41.7502 143.675C40.9669 143.292 40.5752 142.817 40.5752 142.25C40.5752 141.767 40.9502 141.417 41.7002 141.2C41.8835 141.733 42.2752 142.142 42.8752 142.425C43.4919 142.708 44.1585 142.85 44.8752 142.85C45.5919 142.85 46.1669 142.692 46.6002 142.375C47.0502 142.058 47.2752 141.608 47.2752 141.025C47.2752 140.442 47.0502 140.017 46.6002 139.75C46.1669 139.483 45.6335 139.283 45.0002 139.15C44.3669 139 43.7335 138.833 43.1002 138.65C42.4669 138.45 41.9252 138.083 41.4752 137.55C41.0419 137.017 40.8252 136.292 40.8252 135.375C40.8252 134.442 41.2502 133.667 42.1002 133.05C42.9669 132.433 43.8669 132.125 44.8002 132.125C45.7335 132.125 46.5752 132.3 47.3252 132.65C48.0752 133 48.4502 133.458 48.4502 134.025C48.4502 134.592 48.0752 134.967 47.3252 135.15ZM56.5047 132.125C57.6714 132.125 58.613 132.458 59.3297 133.125C60.063 133.775 60.4297 134.483 60.4297 135.25C60.4297 136.017 60.313 136.617 60.0797 137.05C59.8464 137.483 59.538 137.825 59.1547 138.075C58.788 138.325 58.2547 138.517 57.5547 138.65C56.488 138.85 54.888 138.95 52.7547 138.95C52.888 140.15 53.2464 141.1 53.8297 141.8C54.4297 142.5 55.313 142.85 56.4797 142.85C57.6464 142.85 58.4714 142.417 58.9547 141.55C59.6214 141.817 59.9547 142.183 59.9547 142.65C59.9547 143.117 59.5714 143.5 58.8047 143.8C58.0547 144.1 57.213 144.25 56.2797 144.25C54.713 144.25 53.4297 143.758 52.4297 142.775C51.4297 141.775 50.9297 140.283 50.9297 138.3C50.9297 136.3 51.4797 134.775 52.5797 133.725C53.6964 132.658 55.0047 132.125 56.5047 132.125ZM56.4047 133.5C55.4047 133.5 54.5464 133.842 53.8297 134.525C53.1297 135.208 52.763 136.267 52.7297 137.7C55.113 137.7 56.6964 137.525 57.4797 137.175C57.813 137.025 58.0964 136.808 58.3297 136.525C58.5797 136.242 58.7047 135.867 58.7047 135.4C58.7047 134.917 58.4797 134.483 58.0297 134.1C57.5964 133.7 57.0547 133.5 56.4047 133.5ZM69.0846 142.65L69.1346 138.225V133.225C69.1346 130.875 69.0762 128.942 68.9596 127.425C69.2429 127.375 69.5846 127.35 69.9846 127.35C70.8012 127.35 71.2096 127.667 71.2096 128.3C71.2096 128.383 71.1929 128.717 71.1596 129.3C71.0596 131.083 71.0096 132.725 71.0096 134.225C71.8096 134.258 73.1346 134.275 74.9846 134.275C76.8512 134.275 78.1846 134.258 78.9846 134.225V132.95C78.9679 130.55 78.9096 128.708 78.8096 127.425C79.0929 127.375 79.4346 127.35 79.8346 127.35C80.6512 127.35 81.0596 127.667 81.0596 128.3C81.0596 128.4 81.0429 128.733 81.0096 129.3C80.9096 131.033 80.8596 132.567 80.8596 133.9V138.925C80.8596 141.175 81.0179 142.825 81.3346 143.875C81.0346 144.008 80.6429 144.075 80.1596 144.075C79.6762 144.075 79.3512 143.967 79.1846 143.75C79.0179 143.533 78.9346 143.167 78.9346 142.65C78.9346 142.65 78.9512 141.175 78.9846 138.225V135.7C78.1346 135.733 76.7929 135.75 74.9596 135.75C73.1262 135.75 71.8096 135.733 71.0096 135.7V138.925C71.0096 141.175 71.1679 142.825 71.4846 143.875C71.1846 144.008 70.7929 144.075 70.3096 144.075C69.8262 144.075 69.5012 143.967 69.3346 143.75C69.1679 143.533 69.0846 143.167 69.0846 142.65ZM92.7834 136.2L92.7334 139.575C92.7334 141.492 92.8917 142.925 93.2084 143.875C92.9417 144.008 92.6167 144.075 92.2334 144.075C91.8667 144.075 91.6084 143.992 91.4584 143.825C91.3084 143.642 91.2084 143.358 91.1584 142.975C90.1251 143.825 89.0584 144.25 87.9584 144.25C85.3917 144.25 84.1084 143.075 84.1084 140.725C84.1084 139.875 84.3084 139.25 84.7084 138.85C85.1084 138.45 85.6584 138.15 86.3584 137.95C87.6084 137.617 89.1917 137.392 91.1084 137.275C91.1084 135.858 90.9334 134.883 90.5834 134.35C90.2334 133.8 89.4917 133.525 88.3584 133.525C87.8917 133.525 87.4084 133.675 86.9084 133.975C86.4084 134.275 86.0334 134.708 85.7834 135.275C85.0167 135.125 84.6334 134.792 84.6334 134.275C84.6334 133.625 85.0334 133.108 85.8334 132.725C86.6334 132.325 87.6584 132.125 88.9084 132.125C90.1584 132.125 91.1167 132.425 91.7834 133.025C92.4501 133.608 92.7834 134.667 92.7834 136.2ZM91.0834 138.55C90.6001 138.6 90.2334 138.642 89.9834 138.675C89.7501 138.708 89.4251 138.75 89.0084 138.8C88.6084 138.85 88.3084 138.9 88.1084 138.95C87.9084 139 87.6584 139.067 87.3584 139.15C87.0751 139.233 86.8584 139.325 86.7084 139.425C86.5751 139.525 86.4334 139.633 86.2834 139.75C86.0001 139.983 85.8584 140.308 85.8584 140.725C85.8584 141.475 86.0751 142.033 86.5084 142.4C86.9417 142.75 87.4917 142.925 88.1584 142.925C89.2917 142.925 90.2501 142.55 91.0334 141.8C91.0167 141.567 91.0084 141.142 91.0084 140.525C91.0084 139.908 91.0334 139.25 91.0834 138.55ZM96.4801 148.9L96.5551 137.775C96.5551 135.142 96.3967 133.383 96.0801 132.5C96.3801 132.367 96.7051 132.3 97.0551 132.3C97.7717 132.3 98.1301 132.717 98.1301 133.55C99.3967 132.6 100.68 132.125 101.98 132.125C103.297 132.125 104.355 132.575 105.155 133.475C105.972 134.358 106.38 135.708 106.38 137.525C106.38 140.125 105.588 142.042 104.005 143.275C103.172 143.925 102.213 144.25 101.13 144.25C100.063 144.25 99.0884 143.967 98.2051 143.4C98.2051 146.233 98.2634 147.983 98.3801 148.65C98.4967 149.333 98.6051 149.825 98.7051 150.125C98.4051 150.258 98.0384 150.325 97.6051 150.325C97.1884 150.325 96.8967 150.217 96.7301 150C96.5634 149.783 96.4801 149.417 96.4801 148.9ZM98.2551 142.1C99.0217 142.6 100.022 142.85 101.255 142.85C102.005 142.85 102.647 142.6 103.18 142.1C104.13 141.167 104.605 139.767 104.605 137.9C104.605 136.4 104.313 135.3 103.73 134.6C103.163 133.883 102.372 133.525 101.355 133.525C100.338 133.525 99.2884 133.983 98.2051 134.9C98.2384 138.567 98.2551 140.967 98.2551 142.1ZM109.395 148.9L109.47 137.775C109.47 135.142 109.312 133.383 108.995 132.5C109.295 132.367 109.62 132.3 109.97 132.3C110.687 132.3 111.045 132.717 111.045 133.55C112.312 132.6 113.595 132.125 114.895 132.125C116.212 132.125 117.27 132.575 118.07 133.475C118.887 134.358 119.295 135.708 119.295 137.525C119.295 140.125 118.503 142.042 116.92 143.275C116.087 143.925 115.128 144.25 114.045 144.25C112.978 144.25 112.003 143.967 111.12 143.4C111.12 146.233 111.178 147.983 111.295 148.65C111.412 149.333 111.52 149.825 111.62 150.125C111.32 150.258 110.953 150.325 110.52 150.325C110.103 150.325 109.812 150.217 109.645 150C109.478 149.783 109.395 149.417 109.395 148.9ZM111.17 142.1C111.937 142.6 112.937 142.85 114.17 142.85C114.92 142.85 115.562 142.6 116.095 142.1C117.045 141.167 117.52 139.767 117.52 137.9C117.52 136.4 117.228 135.3 116.645 134.6C116.078 133.883 115.287 133.525 114.27 133.525C113.253 133.525 112.203 133.983 111.12 134.9C111.153 138.567 111.17 140.967 111.17 142.1ZM122.185 142.65L122.235 138.225C122.235 135.842 122.177 133.892 122.06 132.375C122.327 132.325 122.61 132.3 122.91 132.3C123.693 132.3 124.085 132.617 124.085 133.25C124.085 133.333 124.068 133.667 124.035 134.25C123.935 136.033 123.885 137.825 123.885 139.625C123.885 141.408 124.043 142.825 124.36 143.875C124.06 144.008 123.702 144.075 123.285 144.075C122.885 144.075 122.602 143.967 122.435 143.75C122.268 143.533 122.185 143.167 122.185 142.65ZM124.31 129.65C124.31 130.017 124.177 130.333 123.91 130.6C123.643 130.85 123.335 130.975 122.985 130.975C122.652 130.975 122.36 130.85 122.11 130.6C121.86 130.35 121.735 130.033 121.735 129.65C121.735 129.267 121.868 128.95 122.135 128.7C122.402 128.433 122.702 128.3 123.035 128.3C123.385 128.3 123.685 128.433 123.935 128.7C124.185 128.95 124.31 129.267 124.31 129.65ZM135.007 142.8L135.157 136.325C135.157 135.392 134.924 134.692 134.457 134.225C134.007 133.758 133.424 133.525 132.707 133.525C131.574 133.525 130.457 133.983 129.357 134.9C129.391 137.167 129.407 138.967 129.407 140.3C129.407 141.617 129.457 142.842 129.557 143.975C129.291 144.025 129.007 144.05 128.707 144.05C127.957 144.05 127.582 143.733 127.582 143.1C127.582 143.033 127.599 142.425 127.632 141.275C127.682 140.108 127.707 138.95 127.707 137.8C127.707 135.067 127.549 133.3 127.232 132.5C127.566 132.367 127.866 132.3 128.132 132.3C128.899 132.3 129.282 132.717 129.282 133.55C129.782 133.167 130.424 132.833 131.207 132.55C131.991 132.267 132.816 132.125 133.682 132.125C134.549 132.125 135.291 132.408 135.907 132.975C136.541 133.525 136.857 134.417 136.857 135.65L136.782 140.1C136.782 141.633 136.924 142.892 137.207 143.875C136.874 144.008 136.516 144.075 136.132 144.075C135.766 144.075 135.482 143.983 135.282 143.8C135.099 143.6 135.007 143.267 135.007 142.8ZM145.396 132.125C146.563 132.125 147.505 132.458 148.221 133.125C148.955 133.775 149.321 134.483 149.321 135.25C149.321 136.017 149.205 136.617 148.971 137.05C148.738 137.483 148.43 137.825 148.046 138.075C147.68 138.325 147.146 138.517 146.446 138.65C145.38 138.85 143.78 138.95 141.646 138.95C141.78 140.15 142.138 141.1 142.721 141.8C143.321 142.5 144.205 142.85 145.371 142.85C146.538 142.85 147.363 142.417 147.846 141.55C148.513 141.817 148.846 142.183 148.846 142.65C148.846 143.117 148.463 143.5 147.696 143.8C146.946 144.1 146.105 144.25 145.171 144.25C143.605 144.25 142.321 143.758 141.321 142.775C140.321 141.775 139.821 140.283 139.821 138.3C139.821 136.3 140.371 134.775 141.471 133.725C142.588 132.658 143.896 132.125 145.396 132.125ZM145.296 133.5C144.296 133.5 143.438 133.842 142.721 134.525C142.021 135.208 141.655 136.267 141.621 137.7C144.005 137.7 145.588 137.525 146.371 137.175C146.705 137.025 146.988 136.808 147.221 136.525C147.471 136.242 147.596 135.867 147.596 135.4C147.596 134.917 147.371 134.483 146.921 134.1C146.488 133.7 145.946 133.5 145.296 133.5ZM158.189 135.15C158.006 134.667 157.631 134.275 157.064 133.975C156.498 133.675 155.914 133.525 155.314 133.525C154.731 133.525 154.231 133.683 153.814 134C153.398 134.3 153.189 134.717 153.189 135.25C153.189 135.783 153.406 136.192 153.839 136.475C154.289 136.758 154.831 136.975 155.464 137.125C156.098 137.275 156.731 137.45 157.364 137.65C157.998 137.833 158.531 138.175 158.964 138.675C159.414 139.175 159.639 139.825 159.639 140.625C159.639 141.808 159.214 142.708 158.364 143.325C157.514 143.942 156.539 144.25 155.439 144.25C154.356 144.25 153.414 144.058 152.614 143.675C151.831 143.292 151.439 142.817 151.439 142.25C151.439 141.767 151.814 141.417 152.564 141.2C152.748 141.733 153.139 142.142 153.739 142.425C154.356 142.708 155.023 142.85 155.739 142.85C156.456 142.85 157.031 142.692 157.464 142.375C157.914 142.058 158.139 141.608 158.139 141.025C158.139 140.442 157.914 140.017 157.464 139.75C157.031 139.483 156.498 139.283 155.864 139.15C155.231 139 154.598 138.833 153.964 138.65C153.331 138.45 152.789 138.083 152.339 137.55C151.906 137.017 151.689 136.292 151.689 135.375C151.689 134.442 152.114 133.667 152.964 133.05C153.831 132.433 154.731 132.125 155.664 132.125C156.598 132.125 157.439 132.3 158.189 132.65C158.939 133 159.314 133.458 159.314 134.025C159.314 134.592 158.939 134.967 158.189 135.15ZM168.206 142.65L168.256 138.225C168.256 135.842 168.197 133.892 168.081 132.375C168.347 132.325 168.631 132.3 168.931 132.3C169.714 132.3 170.106 132.617 170.106 133.25C170.106 133.333 170.089 133.667 170.056 134.25C169.956 136.033 169.906 137.825 169.906 139.625C169.906 141.408 170.064 142.825 170.381 143.875C170.081 144.008 169.722 144.075 169.306 144.075C168.906 144.075 168.622 143.967 168.456 143.75C168.289 143.533 168.206 143.167 168.206 142.65ZM170.331 129.65C170.331 130.017 170.197 130.333 169.931 130.6C169.664 130.85 169.356 130.975 169.006 130.975C168.672 130.975 168.381 130.85 168.131 130.6C167.881 130.35 167.756 130.033 167.756 129.65C167.756 129.267 167.889 128.95 168.156 128.7C168.422 128.433 168.722 128.3 169.056 128.3C169.406 128.3 169.706 128.433 169.956 128.7C170.206 128.95 170.331 129.267 170.331 129.65ZM179.503 135.15C179.32 134.667 178.945 134.275 178.378 133.975C177.811 133.675 177.228 133.525 176.628 133.525C176.045 133.525 175.545 133.683 175.128 134C174.711 134.3 174.503 134.717 174.503 135.25C174.503 135.783 174.72 136.192 175.153 136.475C175.603 136.758 176.145 136.975 176.778 137.125C177.411 137.275 178.045 137.45 178.678 137.65C179.311 137.833 179.845 138.175 180.278 138.675C180.728 139.175 180.953 139.825 180.953 140.625C180.953 141.808 180.528 142.708 179.678 143.325C178.828 143.942 177.853 144.25 176.753 144.25C175.67 144.25 174.728 144.058 173.928 143.675C173.145 143.292 172.753 142.817 172.753 142.25C172.753 141.767 173.128 141.417 173.878 141.2C174.061 141.733 174.453 142.142 175.053 142.425C175.67 142.708 176.336 142.85 177.053 142.85C177.77 142.85 178.345 142.692 178.778 142.375C179.228 142.058 179.453 141.608 179.453 141.025C179.453 140.442 179.228 140.017 178.778 139.75C178.345 139.483 177.811 139.283 177.178 139.15C176.545 139 175.911 138.833 175.278 138.65C174.645 138.45 174.103 138.083 173.653 137.55C173.22 137.017 173.003 136.292 173.003 135.375C173.003 134.442 173.428 133.667 174.278 133.05C175.145 132.433 176.045 132.125 176.978 132.125C177.911 132.125 178.753 132.3 179.503 132.65C180.253 133 180.628 133.458 180.628 134.025C180.628 134.592 180.253 134.967 179.503 135.15ZM189.844 142.775L189.894 133.775C189.344 133.775 188.694 133.817 187.944 133.9C187.894 133.733 187.869 133.508 187.869 133.225C187.869 132.758 188.177 132.492 188.794 132.425C189.161 132.392 189.527 132.375 189.894 132.375C189.894 129.875 190.261 128.183 190.994 127.3C191.661 126.517 192.661 126.125 193.994 126.125C194.594 126.125 195.111 126.217 195.544 126.4C195.977 126.583 196.194 126.833 196.194 127.15C196.194 127.467 196.027 127.85 195.694 128.3C195.127 127.783 194.427 127.525 193.594 127.525C192.761 127.525 192.211 127.817 191.944 128.4C191.677 128.983 191.544 129.917 191.544 131.2V132.375C193.161 132.375 194.294 132.342 194.944 132.275C195.011 132.408 195.044 132.625 195.044 132.925C195.044 133.208 194.952 133.408 194.769 133.525C194.602 133.642 194.286 133.708 193.819 133.725C193.369 133.742 192.611 133.75 191.544 133.75V138.95C191.544 141.167 191.702 142.808 192.019 143.875C191.719 144.008 191.369 144.075 190.969 144.075C190.569 144.075 190.277 143.975 190.094 143.775C189.927 143.575 189.844 143.242 189.844 142.775ZM206.629 138.2C206.629 140.033 206.129 141.5 205.129 142.6C204.129 143.7 202.812 144.25 201.179 144.25C199.562 144.25 198.254 143.7 197.254 142.6C196.254 141.5 195.754 140.033 195.754 138.2C195.754 136.367 196.254 134.9 197.254 133.8C198.254 132.683 199.562 132.125 201.179 132.125C202.812 132.125 204.129 132.683 205.129 133.8C206.129 134.9 206.629 136.367 206.629 138.2ZM201.179 142.85C202.346 142.85 203.254 142.458 203.904 141.675C204.554 140.892 204.879 139.817 204.879 138.45C204.879 137.083 204.546 135.925 203.879 134.975C203.212 134.008 202.304 133.525 201.154 133.525C200.004 133.525 199.104 133.925 198.454 134.725C197.821 135.508 197.504 136.583 197.504 137.95C197.504 139.317 197.829 140.475 198.479 141.425C199.129 142.375 200.029 142.85 201.179 142.85ZM209.389 142.65L209.439 138.225C209.439 135.842 209.38 133.892 209.264 132.375C209.53 132.325 209.814 132.3 210.114 132.3C210.83 132.3 211.189 132.617 211.189 133.25C211.189 133.283 211.18 133.4 211.164 133.6C211.164 133.783 211.164 133.958 211.164 134.125C211.497 133.608 211.939 133.15 212.489 132.75C213.055 132.333 213.572 132.125 214.039 132.125C214.939 132.125 215.389 132.45 215.389 133.1C215.389 133.417 215.222 133.792 214.889 134.225C214.522 133.908 214.114 133.75 213.664 133.75C213.214 133.75 212.755 133.933 212.289 134.3C211.822 134.667 211.43 135.15 211.114 135.75C211.097 136.317 211.089 137.55 211.089 139.45C211.089 141.35 211.247 142.825 211.564 143.875C211.264 144.008 210.905 144.075 210.489 144.075C210.089 144.075 209.805 143.967 209.639 143.75C209.472 143.533 209.389 143.167 209.389 142.65ZM223.361 142.575L223.411 138.4V133.4C223.411 131.017 223.294 129.075 223.061 127.575C224.844 127.425 226.794 127.35 228.911 127.35C231.044 127.35 232.261 127.475 232.561 127.725C232.711 127.858 232.786 128.1 232.786 128.45C232.786 128.8 232.719 129.142 232.586 129.475C231.636 129.125 230.086 128.95 227.936 128.95C227.053 128.95 226.136 128.975 225.186 129.025C225.253 129.758 225.286 131.525 225.286 134.325H227.261C228.661 134.325 229.661 134.292 230.261 134.225C230.328 134.358 230.361 134.6 230.361 134.95C230.361 135.283 230.269 135.517 230.086 135.65C229.919 135.783 229.628 135.858 229.211 135.875C228.811 135.892 228.236 135.9 227.486 135.9H225.286C225.286 139.533 225.344 141.717 225.461 142.45C226.194 142.483 226.786 142.5 227.236 142.5C230.036 142.5 231.828 142.308 232.611 141.925C232.744 142.258 232.811 142.6 232.811 142.95C232.811 143.3 232.736 143.542 232.586 143.675C232.286 143.925 231.003 144.05 228.736 144.05C226.469 144.05 225.086 144.033 224.586 144C224.103 143.983 223.778 143.867 223.611 143.65C223.444 143.433 223.361 143.075 223.361 142.575ZM242.769 132.125C243.386 132.125 243.694 132.442 243.694 133.075C243.694 134.208 243.278 135.908 242.444 138.175C241.628 140.425 240.786 142.067 239.919 143.1C239.603 143.483 239.336 143.742 239.119 143.875C238.903 144.008 238.661 144.075 238.394 144.075C238.144 144.075 237.894 144.05 237.644 144C237.261 142.083 236.628 139.917 235.744 137.5C234.861 135.067 234.111 133.542 233.494 132.925C233.994 132.475 234.453 132.25 234.869 132.25C235.286 132.25 235.619 132.542 235.869 133.125C236.219 133.925 236.736 135.3 237.419 137.25C238.103 139.2 238.611 140.85 238.944 142.2C239.628 141.317 240.311 139.917 240.994 138C241.694 136.083 242.044 134.425 242.044 133.025C242.044 132.758 242.019 132.5 241.969 132.25C242.219 132.167 242.486 132.125 242.769 132.125ZM251.256 132.125C252.422 132.125 253.364 132.458 254.081 133.125C254.814 133.775 255.181 134.483 255.181 135.25C255.181 136.017 255.064 136.617 254.831 137.05C254.597 137.483 254.289 137.825 253.906 138.075C253.539 138.325 253.006 138.517 252.306 138.65C251.239 138.85 249.639 138.95 247.506 138.95C247.639 140.15 247.997 141.1 248.581 141.8C249.181 142.5 250.064 142.85 251.231 142.85C252.397 142.85 253.222 142.417 253.706 141.55C254.372 141.817 254.706 142.183 254.706 142.65C254.706 143.117 254.322 143.5 253.556 143.8C252.806 144.1 251.964 144.25 251.031 144.25C249.464 144.25 248.181 143.758 247.181 142.775C246.181 141.775 245.681 140.283 245.681 138.3C245.681 136.3 246.231 134.775 247.331 133.725C248.447 132.658 249.756 132.125 251.256 132.125ZM251.156 133.5C250.156 133.5 249.297 133.842 248.581 134.525C247.881 135.208 247.514 136.267 247.481 137.7C249.864 137.7 251.447 137.525 252.231 137.175C252.564 137.025 252.847 136.808 253.081 136.525C253.331 136.242 253.456 135.867 253.456 135.4C253.456 134.917 253.231 134.483 252.781 134.1C252.347 133.7 251.806 133.5 251.156 133.5ZM257.924 142.65L257.974 138.225C257.974 135.842 257.915 133.892 257.799 132.375C258.065 132.325 258.349 132.3 258.649 132.3C259.365 132.3 259.724 132.617 259.724 133.25C259.724 133.283 259.715 133.4 259.699 133.6C259.699 133.783 259.699 133.958 259.699 134.125C260.032 133.608 260.474 133.15 261.024 132.75C261.59 132.333 262.107 132.125 262.574 132.125C263.474 132.125 263.924 132.45 263.924 133.1C263.924 133.417 263.757 133.792 263.424 134.225C263.057 133.908 262.649 133.75 262.199 133.75C261.749 133.75 261.29 133.933 260.824 134.3C260.357 134.667 259.965 135.15 259.649 135.75C259.632 136.317 259.624 137.55 259.624 139.45C259.624 141.35 259.782 142.825 260.099 143.875C259.799 144.008 259.44 144.075 259.024 144.075C258.624 144.075 258.34 143.967 258.174 143.75C258.007 143.533 257.924 143.167 257.924 142.65ZM273.585 132.125C274.168 132.125 274.46 132.492 274.46 133.225C274.46 133.942 274.16 135.242 273.56 137.125C272.976 138.992 272.276 140.792 271.46 142.525C269.993 145.642 268.61 148.008 267.31 149.625C266.976 150.058 266.651 150.275 266.335 150.275C265.868 150.275 265.41 149.942 264.96 149.275C265.46 148.958 266.126 148.308 266.96 147.325C267.793 146.358 268.518 145.383 269.135 144.4C268.551 142.467 267.76 140.267 266.76 137.8C265.76 135.317 264.901 133.733 264.185 133.05C264.768 132.517 265.243 132.25 265.61 132.25C265.993 132.25 266.318 132.517 266.585 133.05C266.985 133.85 267.576 135.25 268.36 137.25C269.143 139.233 269.726 140.883 270.11 142.2C270.826 140.65 271.451 138.983 271.985 137.2C272.535 135.417 272.81 134.008 272.81 132.975C272.81 132.892 272.793 132.65 272.76 132.25C273.01 132.167 273.285 132.125 273.585 132.125ZM286.951 138.2C286.951 140.033 286.451 141.5 285.451 142.6C284.451 143.7 283.135 144.25 281.501 144.25C279.885 144.25 278.576 143.7 277.576 142.6C276.576 141.5 276.076 140.033 276.076 138.2C276.076 136.367 276.576 134.9 277.576 133.8C278.576 132.683 279.885 132.125 281.501 132.125C283.135 132.125 284.451 132.683 285.451 133.8C286.451 134.9 286.951 136.367 286.951 138.2ZM281.501 142.85C282.668 142.85 283.576 142.458 284.226 141.675C284.876 140.892 285.201 139.817 285.201 138.45C285.201 137.083 284.868 135.925 284.201 134.975C283.535 134.008 282.626 133.525 281.476 133.525C280.326 133.525 279.426 133.925 278.776 134.725C278.143 135.508 277.826 136.583 277.826 137.95C277.826 139.317 278.151 140.475 278.801 141.425C279.451 142.375 280.351 142.85 281.501 142.85ZM297.361 142.8L297.511 136.325C297.511 135.392 297.278 134.692 296.811 134.225C296.361 133.758 295.778 133.525 295.061 133.525C293.928 133.525 292.811 133.983 291.711 134.9C291.744 137.167 291.761 138.967 291.761 140.3C291.761 141.617 291.811 142.842 291.911 143.975C291.644 144.025 291.361 144.05 291.061 144.05C290.311 144.05 289.936 143.733 289.936 143.1C289.936 143.033 289.953 142.425 289.986 141.275C290.036 140.108 290.061 138.95 290.061 137.8C290.061 135.067 289.903 133.3 289.586 132.5C289.919 132.367 290.219 132.3 290.486 132.3C291.253 132.3 291.636 132.717 291.636 133.55C292.136 133.167 292.778 132.833 293.561 132.55C294.344 132.267 295.169 132.125 296.036 132.125C296.903 132.125 297.644 132.408 298.261 132.975C298.894 133.525 299.211 134.417 299.211 135.65L299.136 140.1C299.136 141.633 299.278 142.892 299.561 143.875C299.228 144.008 298.869 144.075 298.486 144.075C298.119 144.075 297.836 143.983 297.636 143.8C297.453 143.6 297.361 143.267 297.361 142.8ZM307.75 132.125C308.916 132.125 309.858 132.458 310.575 133.125C311.308 133.775 311.675 134.483 311.675 135.25C311.675 136.017 311.558 136.617 311.325 137.05C311.091 137.483 310.783 137.825 310.4 138.075C310.033 138.325 309.5 138.517 308.8 138.65C307.733 138.85 306.133 138.95 304 138.95C304.133 140.15 304.491 141.1 305.075 141.8C305.675 142.5 306.558 142.85 307.725 142.85C308.891 142.85 309.716 142.417 310.2 141.55C310.866 141.817 311.2 142.183 311.2 142.65C311.2 143.117 310.816 143.5 310.05 143.8C309.3 144.1 308.458 144.25 307.525 144.25C305.958 144.25 304.675 143.758 303.675 142.775C302.675 141.775 302.175 140.283 302.175 138.3C302.175 136.3 302.725 134.775 303.825 133.725C304.941 132.658 306.25 132.125 307.75 132.125ZM307.65 133.5C306.65 133.5 305.791 133.842 305.075 134.525C304.375 135.208 304.008 136.267 303.975 137.7C306.358 137.7 307.941 137.525 308.725 137.175C309.058 137.025 309.341 136.808 309.575 136.525C309.825 136.242 309.95 135.867 309.95 135.4C309.95 134.917 309.725 134.483 309.275 134.1C308.841 133.7 308.3 133.5 307.65 133.5Z" fill="black"/>
</svg>
