<svg width="138" height="205" viewBox="0 0 138 205" fill="none" xmlns="http://www.w3.org/2000/svg">
<g clip-path="url(#clip0_10_154)">
<path d="M112.366 42.7372C105.874 39.3791 99.0889 38.7055 92.0091 40.7165C76.0657 45.2557 61.5415 52.3429 46.7529 59.6448C44.8346 60.5885 42.7272 60.9366 40.4304 60.6893C38.1923 60.455 36.0783 60.8422 34.0883 61.851C33.9037 61.9432 33.7387 62.0422 33.6172 62.1335C33.4957 62.2249 33.4242 62.3036 33.4129 62.3586C32.8192 65.3197 32.6169 68.2873 32.8061 71.2615C32.8171 71.4323 32.8717 71.5971 32.9663 71.7442C33.0607 71.8912 33.1928 72.0171 33.3532 72.1129C33.5137 72.2088 33.6985 72.2722 33.8949 72.2988C34.0911 72.3254 34.2941 72.3145 34.4895 72.2669C37.5236 71.538 40.5674 71.4242 43.621 71.9253C47.35 72.5305 48.7006 70.0119 51.2551 68.6941C61.734 63.3055 72.5587 58.7337 83.7291 54.9786C83.9444 54.907 84.1826 54.8973 84.4436 54.9493C84.7894 55.0274 84.7992 55.1575 84.4729 55.3398C73.9223 61.3011 66.011 69.7093 60.7389 80.5646" stroke="#FEB2A7" stroke-width="2"/>
<path d="M60.7423 80.5642C59.3851 83.5253 58.9382 86.6589 59.4014 89.9649C61.0163 101.513 64.5495 112.934 67.4661 124.219C67.4812 124.276 67.4829 124.335 67.4712 124.393C67.4595 124.451 67.4348 124.504 67.3987 124.55C67.3628 124.597 67.3165 124.634 67.2638 124.659C67.2109 124.685 67.1529 124.698 67.0942 124.697C46.5279 125.004 25.9584 125.28 5.38564 125.527C2.33202 125.566 0.8248 126.045 0.991181 129.422C1.42182 137.831 2.23088 146.669 3.4184 155.936C3.56194 157.094 4.19158 157.849 5.30732 158.2C9.56804 159.535 12.0834 157.986 12.8533 153.554C13.8386 147.911 14.7096 142.234 15.4665 136.519C15.4835 136.388 15.5483 136.269 15.6481 136.184C15.7477 136.098 15.875 136.054 16.0048 136.06L81.2759 138.022" stroke="#8D94AE" stroke-width="2"/>
<path d="M81.234 138.619C86.2059 154.062 93.328 175.769 101.308 197.805C102.065 199.881 103.014 201.543 104.156 202.793C104.259 202.905 104.393 202.991 104.543 203.044C104.695 203.097 104.86 203.114 105.027 203.096L125.1 200.987C125.444 200.951 125.768 200.794 126.027 200.541C126.286 200.288 126.465 199.952 126.539 199.581C127.153 196.549 126.585 194.655 124.836 193.9C122.654 192.963 116.096 193.168 113.091 193.099C112.765 193.095 112.448 192.986 112.188 192.789C111.928 192.593 111.737 192.318 111.643 192.006C103.285 164.764 94.9787 137.551 86.7248 110.367C85.4459 106.17 84.2748 101.943 83.2112 97.6865" stroke="#8D94AE" stroke-width="2"/>
<path d="M83.2106 97.6875C90.9033 89.575 104.4 80.5062 116.057 81.2188C116.173 81.2268 116.285 81.2588 116.388 81.313C116.491 81.3671 116.582 81.4421 116.653 81.5331C116.725 81.6242 116.777 81.7292 116.806 81.8416C116.834 81.9538 116.839 82.071 116.819 82.1852C115.058 92.4222 113.088 102.21 110.909 111.549C109.238 118.695 108.406 123.758 108.413 126.739C108.413 128.443 109.273 128.938 110.996 128.223C111.389 128.057 111.823 128.016 112.24 128.105C112.657 128.193 113.036 128.408 113.325 128.721C114.725 130.234 119.111 137.497 121.195 134.714C121.285 134.59 121.346 134.448 121.371 134.301C121.397 134.153 121.387 134.004 121.341 133.865L119.492 128.184C119.062 126.849 119.469 126.469 120.716 127.042C124.663 128.844 125.925 128.157 124.503 124.982C123.427 122.61 120.362 120.189 118.522 118.314C118.384 118.17 118.285 117.994 118.232 117.804C118.179 117.613 118.175 117.412 118.219 117.221C120.947 105.278 123.54 93.3138 126.001 81.3262C127.475 74.1479 128.079 68.294 127.811 63.7645C127.41 57.0288 124.297 52.8604 119.501 47.9697" stroke="#FEB2A7" stroke-width="2"/>
<path d="M119.505 47.9693C119.492 44.891 120.22 42.0829 121.688 39.5448C121.841 39.2767 122.078 39.0501 122.373 38.8908C131.896 33.8146 138.815 25.1265 134.176 13.9686C134.089 13.7561 134.037 13.5449 134.028 13.3671C134.02 13.1892 134.054 13.0542 134.127 12.9827L136.427 10.8838C136.584 10.7397 136.714 10.5916 136.809 10.4498C136.904 10.3082 136.961 10.1764 136.975 10.0638C137.112 9.17222 135.999 8.785 133.638 8.90214C132.496 8.96071 132.255 8.53443 132.914 7.62332L136.398 2.78142C136.492 2.6488 136.545 2.48726 136.55 2.31487C136.554 2.14246 136.512 1.96601 136.427 1.80523C134.607 -1.60168 124.692 6.47142 122.784 8.35547C121.974 9.15594 121.002 9.57896 119.867 9.62451C109.688 10.0248 103.767 20.021 105.607 29.5193C105.94 31.2243 106.736 32.6236 107.995 33.7169L112.713 37.7973C112.979 38.025 113.155 38.3252 113.212 38.6467C113.493 40.1174 113.212 41.4809 112.37 42.7369" stroke="#FFEA9A" stroke-width="2"/>
<path d="M119.504 47.9693L112.369 42.7369" stroke="#FE9D42" stroke-width="2"/>
<path d="M83.2135 97.6865L81.7845 96.7498" stroke="#8C4756" stroke-width="2"/>
<path d="M81.7846 96.7496C75.8797 93.6128 70.4151 89.8447 65.391 85.4453" stroke="#914740" stroke-width="2"/>
<path d="M65.391 85.4452L60.7421 80.5642" stroke="#8C4756" stroke-width="2"/>
<path d="M65.3905 85.4453C65.1883 85.7642 65.0904 86.1059 65.0969 86.4703C65.0972 86.609 65.134 86.7553 65.2047 86.8997C65.2755 87.0442 65.3787 87.1839 65.5079 87.3098C69.886 91.5204 74.7569 95.0445 80.1203 97.8817C80.2489 97.952 80.3954 97.9783 80.5358 97.9569C80.6764 97.9354 80.8025 97.868 80.8935 97.7645L81.7841 96.7496" stroke="#1F2847" stroke-width="2"/>
<path d="M91.6977 68.5863C92.373 67.698 92.2458 66.4582 93.7824 66.2728C93.9803 66.2484 94.1607 66.2049 94.3098 66.1458C94.459 66.0866 94.5732 66.0132 94.6437 65.9311C95.6713 64.7109 91.4923 64.7206 90.1319 66.2728C89.8765 66.5595 89.5869 66.7599 89.2998 66.8487L84.0539 68.4985C83.9858 68.5196 83.9221 68.5529 83.8669 68.5963C83.8117 68.6398 83.7662 68.6926 83.7332 68.7511C83.7001 68.8098 83.6802 68.8731 83.6747 68.9371C83.6693 69.0011 83.6784 69.0645 83.7015 69.1232C85.1696 72.8523 90.073 70.6754 91.6977 68.5863Z" stroke="#FB6E5A" stroke-width="2"/>
<path d="M119.505 47.9693L112.37 42.7369C113.212 41.4809 113.493 40.1174 113.212 38.6467C113.155 38.3252 112.979 38.025 112.713 37.7973L107.995 33.7169C106.736 32.6236 105.94 31.2243 105.607 29.5193C103.767 20.021 109.688 10.0248 119.867 9.62451C121.002 9.57896 121.974 9.15594 122.784 8.35547C124.692 6.47142 134.607 -1.60168 136.427 1.80523C136.512 1.96601 136.554 2.14246 136.55 2.31487C136.545 2.48726 136.492 2.6488 136.398 2.78142L132.914 7.62332C132.255 8.53443 132.496 8.96071 133.638 8.90214C135.999 8.785 137.112 9.17222 136.975 10.0638C136.961 10.1764 136.904 10.3082 136.809 10.4498C136.714 10.5916 136.584 10.7397 136.427 10.8838L134.127 12.9827C134.054 13.0542 134.02 13.1892 134.028 13.3671C134.037 13.5449 134.089 13.7561 134.176 13.9686C138.815 25.1265 131.896 33.8146 122.373 38.8908C122.078 39.0501 121.841 39.2767 121.688 39.5448C120.22 42.0829 119.492 44.891 119.505 47.9693Z" fill="#FED434"/>
<path d="M112.37 42.7367L119.505 47.9691C124.301 52.8598 127.413 57.0281 127.814 63.7638C128.083 68.2934 127.479 74.1473 126.004 81.3255C123.544 93.3131 120.951 105.278 118.223 117.22C118.178 117.411 118.183 117.611 118.236 117.803C118.288 117.994 118.388 118.169 118.526 118.313C120.366 120.188 123.43 122.609 124.506 124.981C125.929 128.156 124.667 128.843 120.719 127.04C119.473 126.467 119.065 126.848 119.495 128.183L121.345 133.864C121.39 134.003 121.401 134.152 121.375 134.3C121.35 134.448 121.289 134.589 121.198 134.713C119.114 137.495 114.729 130.233 113.329 128.719C113.04 128.408 112.661 128.193 112.244 128.104C111.827 128.015 111.392 128.056 111 128.222C109.277 128.937 108.416 128.443 108.416 126.738C108.41 123.757 109.242 118.694 110.912 111.548C113.091 102.209 115.062 92.4216 116.823 82.1845C116.843 82.0702 116.838 81.9532 116.81 81.8408C116.78 81.7286 116.728 81.6235 116.657 81.5325C116.585 81.4414 116.494 81.3664 116.392 81.3122C116.289 81.2581 116.176 81.226 116.06 81.2181C104.403 80.5055 90.9069 89.5743 83.2142 97.6864L81.7852 96.7493C75.8803 93.6125 70.4157 89.8444 65.3916 85.445L60.7427 80.5641C66.0148 69.7088 73.9261 61.3006 84.4767 55.3393C84.8029 55.157 84.7931 55.0269 84.4474 54.9488C84.1863 54.8968 83.9482 54.9066 83.7329 54.9781C72.5624 58.7332 61.7378 63.305 51.2589 68.6936C48.7044 70.0115 47.3537 72.53 43.6248 71.9248C40.5712 71.4237 37.5274 71.5375 34.4933 72.2664C34.2979 72.3141 34.0949 72.3249 33.8986 72.2983C33.7023 72.2717 33.5174 72.2083 33.357 72.1124C33.1966 72.0166 33.0646 71.8908 32.97 71.7437C32.8755 71.5966 32.8209 71.4318 32.8099 71.261C32.6207 68.2868 32.8229 65.3192 33.4167 62.3581C33.428 62.3032 33.4995 62.2244 33.621 62.133C33.7424 62.0417 33.9075 61.9427 34.092 61.8505C36.0821 60.8418 38.1962 60.4545 40.4342 60.6888C42.7309 60.9361 44.8384 60.588 46.7567 59.6443C61.5452 52.3424 76.0695 45.2553 92.0129 40.716C99.0928 38.705 105.878 39.3786 112.37 42.7367ZM91.6997 68.5862C92.375 67.6979 92.2478 66.4581 93.7844 66.2726C93.9823 66.2482 94.1627 66.2048 94.3118 66.1456C94.461 66.0865 94.5752 66.0131 94.6457 65.931C95.6733 64.7107 91.4942 64.7205 90.1337 66.2726C89.8785 66.5593 89.5889 66.7598 89.3018 66.8486L84.0559 68.4984C83.9878 68.5194 83.9241 68.5527 83.8689 68.5962C83.8137 68.6397 83.7682 68.6924 83.7351 68.751C83.7021 68.8097 83.6822 68.8729 83.6767 68.937C83.6713 69.001 83.6804 69.0643 83.7035 69.1231C85.1716 72.8522 90.075 70.6753 91.6997 68.5862Z" fill="#FD654F"/>
<path d="M91.6977 68.5863C90.073 70.6754 85.1696 72.8523 83.7015 69.1232C83.6784 69.0645 83.6693 69.0011 83.6747 68.9371C83.6802 68.8731 83.7001 68.8098 83.7332 68.7511C83.7662 68.6926 83.8117 68.6398 83.8669 68.5963C83.9221 68.5529 83.9858 68.5196 84.0539 68.4985L89.2998 66.8487C89.5869 66.7599 89.8765 66.5595 90.1319 66.2728C91.4923 64.7206 95.6713 64.7109 94.6437 65.9311C94.5732 66.0132 94.459 66.0866 94.3098 66.1458C94.1607 66.2049 93.9803 66.2484 93.7824 66.2728C92.2458 66.4582 92.373 67.698 91.6977 68.5863Z" fill="#F97764"/>
<path d="M60.7423 80.5642L65.3912 85.4452C65.1889 85.7641 65.091 86.1058 65.0976 86.4702C65.098 86.6089 65.1347 86.7551 65.2054 86.8996C65.2762 87.0441 65.3794 87.1838 65.5086 87.3097C69.8868 91.5203 74.7576 95.0443 80.121 97.8815C80.2495 97.9518 80.396 97.9782 80.5365 97.9567C80.677 97.9352 80.8031 97.8679 80.8942 97.7644L81.7848 96.7494L83.2137 97.6863C84.2773 101.942 85.4485 106.169 86.7274 110.367C94.9812 137.551 103.288 164.764 111.646 192.006C111.739 192.318 111.93 192.593 112.19 192.789C112.451 192.986 112.768 193.094 113.094 193.099C116.099 193.167 122.657 192.962 124.839 193.9C126.587 194.655 127.155 196.549 126.542 199.581C126.468 199.952 126.289 200.288 126.029 200.541C125.771 200.793 125.446 200.95 125.103 200.987L105.03 203.095C104.863 203.114 104.697 203.096 104.546 203.044C104.395 202.991 104.261 202.905 104.159 202.793C103.017 201.543 102.067 199.881 101.311 197.804C93.3305 175.769 86.8546 157.029 81.8827 141.586C84.4469 142.419 86.2217 141.788 87.2069 139.692C87.2307 139.642 87.2419 139.587 87.2394 139.532C87.2369 139.476 87.2208 139.421 87.1925 139.372C87.1642 139.322 87.1243 139.278 87.0759 139.244C87.0275 139.21 86.9718 139.186 86.9133 139.174L81.2759 138.022L16.0048 136.06C15.875 136.054 15.7477 136.098 15.6481 136.184C15.5483 136.269 15.4835 136.388 15.4665 136.519C14.7096 142.234 13.8386 147.911 12.8533 153.554C12.0834 157.986 9.56804 159.535 5.30732 158.2C4.19158 157.849 3.56194 157.094 3.4184 155.936C2.23088 146.669 1.42182 137.831 0.991181 129.422C0.8248 126.045 2.33202 125.566 5.38564 125.527C25.9584 125.28 46.5279 125.004 67.0942 124.697C67.1529 124.698 67.2109 124.685 67.2638 124.659C67.3165 124.634 67.3628 124.597 67.3987 124.55C67.4348 124.504 67.4595 124.451 67.4712 124.393C67.4829 124.335 67.4812 124.276 67.4661 124.219C64.5495 112.934 61.0163 101.513 59.4014 89.9649C58.9382 86.6589 59.3851 83.5253 60.7423 80.5642Z" fill="#1A285D"/>
<path d="M65.3905 85.4453C70.4146 89.8447 75.8792 93.6128 81.7841 96.7496L80.8935 97.7645C80.8025 97.868 80.6764 97.9354 80.5358 97.9569C80.3954 97.9783 80.2489 97.952 80.1203 97.8817C74.7569 95.0445 69.886 91.5204 65.5079 87.3098C65.3787 87.1839 65.2755 87.0442 65.2047 86.8997C65.134 86.7553 65.0972 86.609 65.0969 86.4703C65.0904 86.1059 65.1883 85.7642 65.3905 85.4453Z" fill="#242830"/>
<path d="M81.8829 141.586L80.7446 137.643L86.9135 139.174C86.9721 139.185 87.0277 139.21 87.0761 139.244C87.1245 139.278 87.1644 139.321 87.1928 139.371C87.221 139.421 87.2371 139.476 87.2396 139.532C87.2421 139.587 87.2309 139.642 87.2071 139.692C86.2219 141.787 84.4471 142.418 81.8829 141.586Z" fill="#36406C"/>
</g>
<defs>
<clipPath id="clip0_10_154">
<rect width="138" height="205" fill="white"/>
</clipPath>
</defs>
</svg>
